<svg width="180" height="180" viewBox="0 0 180 180" fill="none" xmlns="http://www.w3.org/2000/svg">
<rect width="180" height="180" fill="#FFA62B"/>
<path d="M55.1135 155.627C55.1135 155.387 55.0766 155.172 55.0028 154.981C54.9351 154.784 54.8059 154.606 54.6152 154.446C54.4245 154.28 54.1568 154.117 53.8123 153.957C53.4678 153.797 53.0217 153.631 52.4742 153.458C51.8651 153.262 51.2868 153.04 50.7392 152.794C50.1978 152.548 49.7179 152.262 49.2996 151.936C48.8874 151.603 48.5613 151.219 48.3214 150.782C48.0876 150.345 47.9707 149.838 47.9707 149.259C47.9707 148.7 48.0937 148.192 48.3398 147.737C48.5859 147.275 48.9304 146.882 49.3734 146.555C49.8164 146.223 50.3393 145.968 50.9422 145.79C51.5513 145.611 52.2189 145.522 52.9448 145.522C53.9354 145.522 54.7998 145.7 55.5381 146.057C56.2763 146.414 56.8485 146.903 57.2546 147.524C57.6668 148.146 57.8729 148.856 57.8729 149.656H55.1228C55.1228 149.263 55.0397 148.918 54.8736 148.623C54.7136 148.321 54.4675 148.084 54.1353 147.912C53.8092 147.74 53.397 147.654 52.8987 147.654C52.4188 147.654 52.0189 147.728 51.699 147.875C51.3791 148.017 51.1391 148.21 50.9792 148.457C50.8192 148.697 50.7392 148.967 50.7392 149.269C50.7392 149.496 50.7946 149.702 50.9053 149.887C51.0222 150.072 51.1945 150.244 51.4221 150.404C51.6498 150.564 51.9297 150.714 52.2619 150.856C52.5942 150.997 52.9787 151.136 53.4155 151.271C54.1476 151.493 54.7905 151.742 55.3443 152.019C55.9041 152.296 56.3717 152.606 56.747 152.951C57.1223 153.295 57.4053 153.686 57.596 154.123C57.7867 154.56 57.8821 155.055 57.8821 155.609C57.8821 156.193 57.7683 156.716 57.5406 157.178C57.313 157.639 56.9839 158.03 56.5532 158.35C56.1225 158.669 55.6088 158.912 55.012 159.079C54.4152 159.245 53.7477 159.328 53.0094 159.328C52.345 159.328 51.6898 159.242 51.0438 159.069C50.3978 158.891 49.8102 158.623 49.2811 158.266C48.7582 157.91 48.3398 157.454 48.026 156.901C47.7123 156.347 47.5554 155.692 47.5554 154.935H50.3332C50.3332 155.353 50.3978 155.707 50.527 155.996C50.6562 156.285 50.8377 156.519 51.0714 156.698C51.3114 156.876 51.5944 157.005 51.9205 157.085C52.2527 157.165 52.6157 157.205 53.0094 157.205C53.4893 157.205 53.8831 157.138 54.1907 157.002C54.5045 156.867 54.7352 156.679 54.8828 156.439C55.0366 156.199 55.1135 155.929 55.1135 155.627ZM60.889 145.706H63.2331L66.6845 155.572L70.136 145.706H72.48L67.6258 159.143H65.7432L60.889 145.706ZM59.6247 145.706H61.9595L62.384 155.323V159.143H59.6247V145.706ZM71.4095 145.706H73.7536V159.143H70.985V155.323L71.4095 145.706ZM81.6701 148.004L78.0156 159.143H75.0717L80.0643 145.706H81.9377L81.6701 148.004ZM84.7062 159.143L81.0425 148.004L80.7472 145.706H82.6391L87.6594 159.143H84.7062ZM84.5401 154.141V156.31H77.4434V154.141H84.5401ZM88.7652 145.706H93.7763C94.8037 145.706 95.6866 145.86 96.4249 146.168C97.1693 146.476 97.7415 146.931 98.1414 147.534C98.5413 148.137 98.7412 148.878 98.7412 149.758C98.7412 150.478 98.6182 151.096 98.3721 151.613C98.1322 152.123 97.7907 152.551 97.3477 152.895C96.9109 153.234 96.3972 153.505 95.8066 153.708L94.9299 154.169H90.574L90.5556 152.01H93.7948C94.2808 152.01 94.6838 151.923 95.0037 151.751C95.3236 151.579 95.5636 151.339 95.7235 151.031C95.8896 150.724 95.9727 150.367 95.9727 149.961C95.9727 149.53 95.8927 149.158 95.7327 148.844C95.5728 148.53 95.3298 148.29 95.0037 148.124C94.6776 147.958 94.2685 147.875 93.7763 147.875H91.5338V159.143H88.7652V145.706ZM96.2772 159.143L93.2134 153.154L96.1388 153.135L99.2396 159.014V159.143H96.2772ZM106.187 145.706V159.143H103.428V145.706H106.187ZM110.321 145.706V147.875H99.358V145.706H110.321Z" fill="black"/>
<rect x="121.071" y="4.90742" width="52.8" height="168.9" stroke="black" stroke-width="2.1"/>
<path d="M152.668 121.405H155.307V129.673H152.668V121.405ZM138.884 128.579H155.307V131.963H138.884V128.579ZM146.712 106.859H147.49C148.739 106.859 149.859 107.029 150.852 107.367C151.844 107.705 152.69 108.183 153.39 108.8C154.081 109.416 154.611 110.153 154.98 111.01C155.348 111.86 155.533 112.804 155.533 113.841C155.533 114.872 155.348 115.815 154.98 116.672C154.611 117.522 154.081 118.259 153.39 118.883C152.69 119.507 151.844 119.992 150.852 120.338C149.859 120.677 148.739 120.846 147.49 120.846H146.712C145.456 120.846 144.336 120.677 143.351 120.338C142.358 120 141.512 119.522 140.813 118.906C140.114 118.282 139.58 117.545 139.211 116.695C138.843 115.838 138.659 114.894 138.659 113.864C138.659 112.826 138.843 111.883 139.211 111.033C139.58 110.176 140.114 109.439 140.813 108.822C141.512 108.198 142.358 107.717 143.351 107.378C144.336 107.032 145.456 106.859 146.712 106.859ZM147.49 110.277H146.69C145.817 110.277 145.05 110.356 144.389 110.514C143.727 110.672 143.17 110.905 142.719 111.213C142.268 111.522 141.93 111.898 141.704 112.341C141.471 112.785 141.355 113.292 141.355 113.864C141.355 114.435 141.471 114.943 141.704 115.387C141.93 115.823 142.268 116.195 142.719 116.503C143.17 116.804 143.727 117.033 144.389 117.191C145.05 117.349 145.817 117.428 146.69 117.428H147.49C148.355 117.428 149.122 117.349 149.791 117.191C150.453 117.033 151.013 116.8 151.472 116.492C151.923 116.184 152.265 115.808 152.498 115.364C152.732 114.92 152.848 114.413 152.848 113.841C152.848 113.27 152.732 112.762 152.498 112.319C152.265 111.875 151.923 111.503 151.472 111.202C151.013 110.901 150.453 110.672 149.791 110.514C149.122 110.356 148.355 110.277 147.49 110.277ZM149.859 95.0434V91.6709C150.964 91.7386 151.946 92.0431 152.803 92.5845C153.66 93.1184 154.329 93.8666 154.811 94.8291C155.292 95.7841 155.533 96.9346 155.533 98.2806C155.533 99.3333 155.352 100.277 154.991 101.112C154.623 101.946 154.096 102.661 153.412 103.255C152.728 103.841 151.901 104.289 150.931 104.597C149.961 104.905 148.874 105.059 147.671 105.059H146.532C145.329 105.059 144.242 104.902 143.272 104.586C142.294 104.262 141.464 103.804 140.779 103.21C140.095 102.608 139.569 101.89 139.2 101.055C138.832 100.221 138.647 99.2882 138.647 98.258C138.647 96.8895 138.896 95.7352 139.392 94.7953C139.888 93.8478 140.572 93.1147 141.445 92.5958C142.317 92.0695 143.31 91.7536 144.422 91.6484V95.0322C143.761 95.0697 143.201 95.2013 142.742 95.4269C142.276 95.6525 141.926 95.9947 141.693 96.4533C141.452 96.9045 141.332 97.5061 141.332 98.258C141.332 98.822 141.437 99.3145 141.648 99.7356C141.858 100.157 142.178 100.51 142.607 100.796C143.035 101.082 143.577 101.296 144.231 101.439C144.877 101.574 145.637 101.642 146.509 101.642H147.671C148.521 101.642 149.269 101.578 149.916 101.45C150.555 101.322 151.096 101.127 151.54 100.864C151.976 100.593 152.307 100.247 152.532 99.8259C152.75 99.3972 152.859 98.8822 152.859 98.2806C152.859 97.5738 152.747 96.991 152.521 96.5323C152.295 96.0736 151.961 95.7239 151.517 95.4833C151.074 95.2352 150.521 95.0885 149.859 95.0434ZM138.884 86.2051H155.307V89.5889H138.884V86.2051ZM138.884 76.3696L146.994 82.8777L151.032 86.6337L147.829 87.2428L144.355 84.705L138.884 80.5203V76.3696ZM155.307 80.2158L147.716 85.0546L145.618 82.5506L155.307 76.2117V80.2158ZM152.668 64.0234H155.307V72.7648H152.668V64.0234ZM138.884 71.6595H155.307V75.0433H138.884V71.6595ZM145.573 65.1626H148.145V72.7648H145.573V65.1626ZM138.884 64.0347H141.535V72.7648H138.884V64.0347ZM138.884 62.1895V56.0648C138.884 54.8091 139.072 53.73 139.448 52.8277C139.824 51.9178 140.381 51.2185 141.118 50.7297C141.855 50.241 142.761 49.9966 143.836 49.9966C144.716 49.9966 145.471 50.147 146.103 50.4478C146.727 50.741 147.25 51.1584 147.671 51.6998C148.084 52.2336 148.415 52.8615 148.664 53.5834L149.227 54.6549V59.9788L146.588 60.0013V56.0423C146.588 55.4482 146.483 54.9557 146.272 54.5647C146.062 54.1737 145.768 53.8804 145.393 53.6849C145.017 53.4819 144.58 53.3804 144.084 53.3804C143.558 53.3804 143.103 53.4781 142.719 53.6736C142.336 53.8691 142.043 54.1662 141.84 54.5647C141.636 54.9632 141.535 55.4633 141.535 56.0648V58.8057H155.307V62.1895H138.884ZM155.307 53.0082L147.987 56.7529L147.964 53.1773L155.149 49.3875H155.307V53.0082Z" fill="black"/>
</svg>
